<?xml version="1.0" encoding="UTF-8" standalone="no"?>
<!-- Created with Inkscape (http://www.inkscape.org/) -->

<svg
   xmlns:dc="http://purl.org/dc/elements/1.1/"
   xmlns:cc="http://creativecommons.org/ns#"
   xmlns:rdf="http://www.w3.org/1999/02/22-rdf-syntax-ns#"
   xmlns:svg="http://www.w3.org/2000/svg"
   xmlns="http://www.w3.org/2000/svg"
   xmlns:xlink="http://www.w3.org/1999/xlink"
   xmlns:sodipodi="http://sodipodi.sourceforge.net/DTD/sodipodi-0.dtd"
   xmlns:inkscape="http://www.inkscape.org/namespaces/inkscape"
   width="210mm"
   height="297mm"
   id="svg2"
   version="1.1"
   inkscape:version="0.91 r13725"
   sodipodi:docname="luna-sisas.svg">
  <defs
     id="defs4">
    <linearGradient
       id="linearGradient3907">
      <stop
         style="stop-color:#000000;stop-opacity:1;"
         offset="0"
         id="stop3909" />
      <stop
         style="stop-color:#000000;stop-opacity:1;"
         offset="1"
         id="stop3911" />
    </linearGradient>
    <linearGradient
       id="linearGradient3883">
      <stop
         style="stop-color:#000000;stop-opacity:0;"
         offset="0"
         id="stop3885" />
      <stop
         style="stop-color:#000000;stop-opacity:0;"
         offset="1"
         id="stop3887" />
    </linearGradient>
    <linearGradient
       id="linearGradient3875">
      <stop
         id="stop3915"
         offset="0"
         style="stop-color:#000000;stop-opacity:0;" />
      <stop
         style="stop-color:#000000;stop-opacity:0.49285713;"
         offset="1"
         id="stop3879" />
    </linearGradient>
    <radialGradient
       inkscape:collect="always"
       xlink:href="#linearGradient3875"
       id="radialGradient3913"
       cx="-545.71429"
       cy="120.93361"
       fx="-545.71429"
       fy="120.93361"
       r="366.21429"
       gradientUnits="userSpaceOnUse"
       gradientTransform="translate(1074.9045,242.39035)" />
  </defs>
  <sodipodi:namedview
     id="base"
     pagecolor="#ffffff"
     bordercolor="#666666"
     borderopacity="1.0"
     inkscape:pageopacity="0.0"
     inkscape:pageshadow="2"
     inkscape:zoom="0.35"
     inkscape:cx="-188.29065"
     inkscape:cy="795.74254"
     inkscape:document-units="px"
     inkscape:current-layer="layer1"
     showgrid="false"
     inkscape:window-width="1366"
     inkscape:window-height="706"
     inkscape:window-x="-8"
     inkscape:window-y="-8"
     inkscape:window-maximized="1" />
  <metadata
     id="metadata7">
    <rdf:RDF>
      <cc:Work
         rdf:about="">
        <dc:format>image/svg+xml</dc:format>
        <dc:type
           rdf:resource="http://purl.org/dc/dcmitype/StillImage" />
        <dc:title />
      </cc:Work>
    </rdf:RDF>
  </metadata>
  <g
     inkscape:label="Capa 1"
     inkscape:groupmode="layer"
     id="layer1">
    <path
       sodipodi:type="arc"
       style="opacity:0.40300000000000002;fill:#4d4d4d;fill-opacity:1;fill-rule:evenodd;stroke:none"
       id="path3022"
       sodipodi:cx="77.14286"
       sodipodi:cy="283.79074"
       sodipodi:rx="365.71429"
       sodipodi:ry="365.71429"
       d="M 442.85715,283.79074 A 365.71429,365.71429 0 1 1 439.50807,234.4106"
       sodipodi:start="0"
       sodipodi:end="6.1477478"
       sodipodi:open="true"
       transform="translate(294.90438,242.39035)" />
    <path
       style="fill:#000000;stroke:none;stroke-width:0.75734252000000002px;stroke-linecap:butt;stroke-linejoin:miter;stroke-opacity:0;fill-opacity:0.14423077"
       d="m 118.61741,267.3265 c 31.69785,-19.04112 53.86752,-24.2272 57.32615,-2.20526 l 10.61596,68.36303 c 27.4442,7.51422 59.43989,52.84781 76.43486,-26.46311 4.87468,-92.90965 55.1484,-20.78076 91.2972,0 41.03494,-12.78632 62.69754,30.08202 4.24639,39.69466 -37.61898,-46.18761 -100.50814,25.19535 19.10871,52.92623 51.2496,29.02289 -10.86934,82.30246 -50.95658,50.72095 l -91.2972,52.92623 -46.7102,50.72096 c -0.12936,46.55612 5.49101,87.63793 72.18849,70.56829 l 63.69572,-24.25785 c 20.55483,-5.50519 13.3264,-18.22467 74.31168,-13.23156 126.85085,79.78315 84.39617,91.06381 -10.61597,123.49452 -37.14472,2.69266 -44.95559,-74.84096 -112.5291,6.61578 -0.40946,9.84621 -0.83874,19.69758 -23.35509,35.28414 C 59.00625,710.40296 77.804413,534.65279 33.689786,518.72604 36.255677,485.20746 15.534971,365.77864 77.049657,390.37379 116.42035,374.59709 67.763575,349.45329 118.61741,267.3265 z"
       id="path3026"
       inkscape:connector-curvature="0"
       sodipodi:nodetypes="ccccccccccccccccccc" />
    <path
       style="fill:#000000;stroke:#000000;stroke-width:1px;stroke-linecap:butt;stroke-linejoin:miter;stroke-opacity:0;fill-opacity:0.20192307"
       d="m 608.57143,412.36218 c -3.90911,-42.86416 -82.54743,-85.22938 -71.42858,-14.28571 9.36954,42.90857 -34.03814,87.21906 14.28573,108.57142 l 2.85713,28.57144 c -13.50857,51.04218 122.61685,41.56148 54.28572,-122.85715 z"
       id="path3028"
       inkscape:connector-curvature="0"
       sodipodi:nodetypes="ccccc" />
    <path
       style="fill:#000000;stroke:#000000;stroke-width:1px;stroke-linecap:butt;stroke-linejoin:miter;stroke-opacity:0;fill-opacity:0.17788461"
       d="m 588.57143,583.79075 -9.9636,33.87626 C 512.96869,597.1503 556.87947,653.31855 560,680.93361 l 94.28571,-25.71428 c 47.72062,17.36825 63.06229,-83.00184 11.42858,-102.85715 -6.28975,69.65016 -54.13645,-1.57526 -77.14286,31.42857 z"
       id="path3030"
       inkscape:connector-curvature="0"
       sodipodi:nodetypes="cccccc" />
    <path
       style="fill:#000000;stroke:#000000;stroke-width:1px;stroke-linecap:butt;stroke-linejoin:miter;stroke-opacity:0;fill-opacity:0.23076923"
       d="m 651.42857,449.50504 c 15.24376,-7.33885 -5.43858,-66.0007 57.14286,-5.71429 21.73074,17.20087 29.53565,39.04368 5.71428,71.42858 1.45309,28.8463 -16.75206,28.20523 -45.71428,11.42857 -46.75024,-25.71429 -38.32772,-51.42857 -17.14286,-77.14286 z"
       id="path3032"
       inkscape:connector-curvature="0"
       sodipodi:nodetypes="ccccc" />
    <path
       style="fill:#000000;stroke:#000000;stroke-width:1px;stroke-linecap:butt;stroke-linejoin:miter;stroke-opacity:0;fill-opacity:0.17307693"
       d="m 542.85714,263.79075 c 54.40921,16.19048 88.44172,32.38095 37.14286,48.57143 -21.90476,56.53075 -86.66667,22.39054 -65.71429,8.57143 54.79975,-13.47944 13.39722,-20.93108 -22.85714,-45.71428 -1.90476,-30.47619 15.23809,-34.28573 51.42857,-11.42858 z"
       id="path3034"
       inkscape:connector-curvature="0"
       sodipodi:nodetypes="ccccc" />
    <path
       sodipodi:type="star"
       style="opacity:0.403;fill:#000000;fill-opacity:0.75480772;fill-rule:evenodd;stroke:none"
       id="path3818"
       sodipodi:sides="7"
       sodipodi:cx="397.14285"
       sodipodi:cy="206.6479"
       sodipodi:r1="10.729779"
       sodipodi:r2="63.116348"
       sodipodi:arg1="1.6614562"
       sodipodi:arg2="2.1102552"
       inkscape:flatsided="false"
       inkscape:rounded="0"
       inkscape:randomized="0"
       d="m 396.17142,217.33362 -31.44965,43.46728 23.46098,-48.25006 -53.59263,2.51307 52.35109,-11.74087 -35.37925,-40.33353 41.81976,33.60941 9.47542,-52.80816 -0.2027,53.65113 47.19491,-25.51716 -42.07253,33.29245 49.37567,20.98877 -52.26089,-12.13612 14.37555,51.68974 z"
       inkscape:transform-center-x="-0.70835489"
       inkscape:transform-center-y="1.3024384"
       transform="matrix(0.55707681,0,0,0.69547249,188.19773,98.073957)" />
    <path
       sodipodi:type="star"
       style="opacity:0.403;fill:#000000;fill-opacity:0.75961537;fill-rule:evenodd;stroke:none"
       id="path3822"
       sodipodi:sides="7"
       sodipodi:cx="242.85715"
       sodipodi:cy="229.50504"
       sodipodi:r1="49.897854"
       sodipodi:r2="8.4826355"
       sodipodi:arg1="0.41241044"
       sodipodi:arg2="0.86120939"
       inkscape:flatsided="false"
       inkscape:rounded="0"
       inkscape:randomized="0"
       d="m 288.57143,249.50503 -40.18767,-13.5648 7.33915,41.77547 -14.45121,-39.87751 -28.0855,31.78456 22.16731,-36.16163 -42.36118,-2.14078 42.09339,-5.2153 -24.73805,-34.45407 30.3223,29.65825 11.51335,-40.82274 -4.28211,42.19854 39.09496,-16.45106 -35.662,22.96247 z"
       inkscape:transform-center-x="1.4549108"
       inkscape:transform-center-y="-0.28524328"
       transform="matrix(0.70107035,0,0,0.70614358,-39.45173,184.46568)" />
    <path
       sodipodi:type="star"
       style="opacity:0.403;fill:#000000;fill-opacity:0.77403846;fill-rule:evenodd;stroke:none"
       id="path3824"
       sodipodi:sides="7"
       sodipodi:cx="305.71429"
       sodipodi:cy="512.36218"
       sodipodi:r1="51.507874"
       sodipodi:r2="8.7563391"
       sodipodi:arg1="0.5880026"
       sodipodi:arg2="1.0368016"
       inkscape:flatsided="false"
       inkscape:rounded="0"
       inkscape:randomized="0"
       d="m 348.57144,540.93361 -38.40038,-21.03414 -0.0738,43.78377 -7.49709,-43.1372 -34.27755,27.24103 29.05166,-32.75707 -42.66959,-9.81477 43.72391,2.28981 -18.93056,-39.47984 25.47117,35.6124 19.06358,-39.41578 -11.96189,42.11813 42.70245,-9.67084 -40.3874,16.90805 z"
       inkscape:transform-center-x="0.86391208"
       inkscape:transform-center-y="1.1335035"
       transform="matrix(0.8857927,0,0,0.71273858,29.089132,161.92445)" />
    <path
       sodipodi:type="star"
       style="opacity:0.43265306;fill:#ffffff;fill-opacity:1;fill-rule:evenodd;stroke:none"
       id="path3826"
       sodipodi:sides="7"
       sodipodi:cx="591.42859"
       sodipodi:cy="709.50507"
       sodipodi:r1="46.860626"
       sodipodi:r2="7.9663067"
       sodipodi:arg1="0.9151007"
       sodipodi:arg2="1.3638997"
       inkscape:flatsided="false"
       inkscape:rounded="0"
       inkscape:randomized="0"
       d="m 620.00002,746.64792 -26.93496,-29.34644 -12.86193,37.69982 6.1503,-39.35581 -37.49419,13.4496 34.60426,-19.72945 -33.89256,-20.92845 37.00051,14.75359 -4.76915,-39.54695 11.53462,38.12688 27.94554,-28.38579 -22.61708,32.78984 39.61666,4.15046 -39.73765,2.76139 z"
       inkscape:transform-center-x="-2.1420501"
       inkscape:transform-center-y="-0.18250061"
       transform="translate(8.5714286,22.857143)" />
    <path
       sodipodi:type="star"
       style="opacity:0.43265309;fill:#ffffff;fill-opacity:1;fill-rule:evenodd;stroke:none"
       id="path3830"
       sodipodi:sides="9"
       sodipodi:cx="114.28571"
       sodipodi:cy="503.79075"
       sodipodi:r1="22.314999"
       sodipodi:r2="3.79355"
       sodipodi:arg1="0.87605805"
       sodipodi:arg2="1.2251239"
       inkscape:flatsided="false"
       inkscape:rounded="0"
       inkscape:randomized="0"
       d="m 128.57143,520.9336 -13.00035,-13.57371 -1.36109,18.74572 -1.23384,-18.75452 -13.092167,13.48516 11.109997,-15.15989 -18.697273,1.91474 18.255343,-4.47178 -15.553719,-10.55159 16.858809,8.30873 -5.1324,-18.08074 7.57385,17.20149 7.69042,-17.14969 -5.255,18.04548 16.91481,-8.19412 -15.62498,10.4458 18.22458,4.59557 -18.68385,-2.0416 z"
       inkscape:transform-center-x="0.013149356"
       inkscape:transform-center-y="0.65992609" />
    <path
       sodipodi:type="star"
       style="opacity:0.43265309;fill:#ffffff;fill-opacity:1;fill-rule:evenodd;stroke:none"
       id="path3832"
       sodipodi:sides="9"
       sodipodi:cx="260"
       sodipodi:cy="389.50504"
       sodipodi:r1="28.571429"
       sodipodi:r2="4.8571431"
       sodipodi:arg1="0.92729522"
       sodipodi:arg2="1.2763611"
       inkscape:flatsided="false"
       inkscape:rounded="0"
       inkscape:randomized="0"
       d="m 277.14286,412.36218 -15.73332,-18.20902 -2.96964,23.88068 -0.34788,-24.0621 -17.62509,16.38481 15.20033,-18.65625 -24.03355,1.22231 23.63613,-4.52094 -19.19646,-14.51212 21.01233,11.72977 -5.37712,-23.45618 8.55663,22.492 10.95822,-21.42483 -7.90282,22.72997 22.1661,-9.36856 -20.66445,12.33233 23.00221,7.07136 -23.75695,-3.83574 z"
       inkscape:transform-center-x="0.27090813"
       inkscape:transform-center-y="0.59345625" />
    <path
       sodipodi:type="star"
       style="opacity:0.43265309;fill:#ffffff;fill-opacity:1;fill-rule:evenodd;stroke:none"
       id="path3834"
       sodipodi:sides="9"
       sodipodi:cx="640"
       sodipodi:cy="606.6479"
       sodipodi:r1="26.341556"
       sodipodi:r2="4.4780646"
       sodipodi:arg1="0.86217005"
       sodipodi:arg2="1.2112359"
       inkscape:flatsided="false"
       inkscape:rounded="0"
       inkscape:randomized="0"
       d="m 657.14286,626.64789 -15.5672,-15.8083 -1.29922,22.1484 -1.76378,-22.11626 -15.23199,16.13154 12.86492,-18.07577 -22.03753,2.56654 21.47399,-5.57744 -18.53147,-12.19936 20.03513,9.53065 -6.35432,-21.25706 9.22162,20.17924 8.79607,-20.36833 -5.90679,21.38573 19.83069,-9.94904 -18.27135,12.58561 21.58631,5.12552 -22.08654,-2.10346 z"
       inkscape:transform-center-x="-0.048003"
       inkscape:transform-center-y="0.74697762" />
    <path
       sodipodi:type="star"
       style="opacity:0.43265309;fill:#ffffff;fill-opacity:1;fill-rule:evenodd;stroke:none"
       id="path3836"
       sodipodi:sides="9"
       sodipodi:cx="577.14286"
       sodipodi:cy="392.36218"
       sodipodi:r1="29.829447"
       sodipodi:r2="5.0710061"
       sodipodi:arg1="1.2793395"
       sodipodi:arg2="1.6284054"
       inkscape:flatsided="false"
       inkscape:rounded="0"
       inkscape:randomized="0"
       d="m 585.71431,420.93361 -8.8634,-23.50883 -11.50729,22.33399 8.32143,-23.70609 -23.17112,9.71209 21.61257,-12.81102 -23.99291,-7.45421 24.79095,4.07849 -13.58817,-21.13261 16.36937,19.05962 3.17464,-24.92282 0.28838,25.12254 18.45199,-17.05137 -15.92754,19.43035 25.09545,-1.20139 -24.6908,4.64648 19.99648,15.21073 -21.90095,-12.31153 z"
       inkscape:transform-center-x="-0.29824004"
       inkscape:transform-center-y="-0.60426663" />
    <path
       style="fill:#e6e6e6;stroke:#000000;stroke-width:1px;stroke-linecap:butt;stroke-linejoin:miter;stroke-opacity:0;fill-opacity:0.35096154"
       d="m 194.28572,252.36219 c 170.33289,-61.54652 246.53531,-72.05258 328.57142,-5.71429 47.87486,2.58923 84.08592,0.69238 34.28572,-34.28572 C 506.18766,167.33059 388.70536,158.50589 288.57143,166.6479 258.2188,176.17171 206.60435,202.83837 180,218.07647 z"
       id="path3838"
       inkscape:connector-curvature="0"
       sodipodi:nodetypes="cccccc" />
    <path
       sodipodi:type="arc"
       style="opacity:0.43265309000000002;fill:#808080;fill-opacity:1;fill-rule:evenodd;stroke:#000000;stroke-width:10;stroke-linejoin:round;stroke-miterlimit:4;stroke-opacity:0;stroke-dasharray:none;stroke-dashoffset:0"
       id="path3863"
       sodipodi:cx="365.71429"
       sodipodi:cy="826.64789"
       sodipodi:rx="34.285713"
       sodipodi:ry="34.285713"
       d="m 400.00001,826.64789 a 34.285713,34.285713 0 1 1 -0.31398,-4.62939"
       sodipodi:start="0"
       sodipodi:end="6.1477478"
       sodipodi:open="true" />
    <path
       sodipodi:type="arc"
       style="opacity:0.43265309;fill:#333333;fill-opacity:1;fill-rule:evenodd;stroke:#000000;stroke-width:10;stroke-linejoin:round;stroke-miterlimit:4;stroke-opacity:0;stroke-dasharray:none;stroke-dashoffset:0"
       id="path3865"
       sodipodi:cx="354.28571"
       sodipodi:cy="826.64789"
       sodipodi:rx="13.868863"
       sodipodi:ry="8.5714283"
       d="m 368.15457,826.64789 a 13.868863,8.5714283 0 1 1 -0.12701,-1.15735"
       sodipodi:start="0"
       sodipodi:end="6.1477478"
       sodipodi:open="true"
       transform="translate(14.285714,5.7142857)" />
    <path
       style="fill:#ececec;stroke:#000000;stroke-width:1px;stroke-linecap:butt;stroke-linejoin:miter;stroke-opacity:0;fill-opacity:0.67788464"
       d="M 328.57143,492.36218 365.71429,769.50504 302.85714,615.21933 360,783.79075 l -102.85714,-100 80,114.28572 -88.57143,-28.57143 80,37.14286 -22.85714,57.14285 25.71428,-11.42857 25.71429,25.71429 20,-17.14286 54.28571,14.28572 -25.71428,-28.57143 131.42857,-20 -125.71429,5.71428 140,-117.14285 L 414.28571,809.50504 557.14286,626.6479 408.57143,789.50504 494.28571,652.36218 405.71429,775.21933 437.14286,623.79075 391.42857,772.36218 z"
       id="path3867"
       inkscape:connector-curvature="0"
       sodipodi:nodetypes="ccccccccccccccccccccccccc" />
    <path
       style="fill:none;stroke:#000000;stroke-width:1px;stroke-linecap:butt;stroke-linejoin:miter;stroke-opacity:1"
       d="m 360,883.79075 c 0,0 0,0 0,0 z"
       id="path3869"
       inkscape:connector-curvature="0" />
    <path
       sodipodi:open="true"
       sodipodi:end="6.1477478"
       sodipodi:start="0"
       d="M -408.57141,386.18109 A 365.71429,365.71429 0 0 1 -761.90521,751.68577 365.71429,365.71429 0 0 1 -1139.1618,410.92788 365.71429,365.71429 0 0 1 -811.37043,22.351916 365.71429,365.71429 0 0 1 -411.92049,336.80095"
       sodipodi:ry="365.71429"
       sodipodi:rx="365.71429"
       sodipodi:cy="386.18109"
       sodipodi:cx="-774.28571"
       id="path3873"
       style="opacity:0.403;fill:url(#radialGradient3913);fill-opacity:1;fill-rule:evenodd;stroke:none"
       sodipodi:type="arc" />
  </g>
</svg>
