<?xml version="1.0" encoding="UTF-8" standalone="no"?>
<!-- Created with Inkscape (http://www.inkscape.org/) -->

<svg
   xmlns:dc="http://purl.org/dc/elements/1.1/"
   xmlns:cc="http://creativecommons.org/ns#"
   xmlns:rdf="http://www.w3.org/1999/02/22-rdf-syntax-ns#"
   xmlns:svg="http://www.w3.org/2000/svg"
   xmlns="http://www.w3.org/2000/svg"
   xmlns:xlink="http://www.w3.org/1999/xlink"
   xmlns:sodipodi="http://sodipodi.sourceforge.net/DTD/sodipodi-0.dtd"
   xmlns:inkscape="http://www.inkscape.org/namespaces/inkscape"
   width="210mm"
   height="297mm"
   id="svg2"
   version="1.1"
   inkscape:version="0.48.1 "
   sodipodi:docname="luna.svg">
  <defs
     id="defs4">
    <linearGradient
       id="linearGradient3783">
      <stop
         style="stop-color:#000000;stop-opacity:0.11764706;"
         offset="0"
         id="stop3785" />
      <stop
         id="stop3791"
         offset="0.5"
         style="stop-color:#000000;stop-opacity:0.27450982;" />
      <stop
         style="stop-color:#000000;stop-opacity:0.50980395;"
         offset="0.75"
         id="stop3793" />
      <stop
         style="stop-color:#000000;stop-opacity:0.78431374;"
         offset="1"
         id="stop3787" />
    </linearGradient>
    <linearGradient
       id="linearGradient3771">
      <stop
         style="stop-color:#808080;stop-opacity:1;"
         offset="0"
         id="stop3773" />
      <stop
         id="stop3779"
         offset="0.5"
         style="stop-color:#808080;stop-opacity:0.49803922;" />
      <stop
         style="stop-color:#808080;stop-opacity:0.24705882;"
         offset="0.75"
         id="stop3781" />
      <stop
         style="stop-color:#808080;stop-opacity:1;"
         offset="1"
         id="stop3775" />
    </linearGradient>
    <radialGradient
       inkscape:collect="always"
       xlink:href="#linearGradient3783"
       id="radialGradient3789"
       cx="440.89618"
       cy="643.68622"
       fx="440.89618"
       fy="643.68622"
       r="298.29208"
       gradientUnits="userSpaceOnUse"
       gradientTransform="matrix(0.34272506,0.52925723,-0.69007001,0.45673803,701.38686,173.68839)" />
    <filter
       inkscape:collect="always"
       id="filter3805">
      <feGaussianBlur
         inkscape:collect="always"
         stdDeviation="3.360594"
         id="feGaussianBlur3807" />
    </filter>
    <filter
       inkscape:collect="always"
       id="filter3817">
      <feGaussianBlur
         inkscape:collect="always"
         stdDeviation="6.1282854"
         id="feGaussianBlur3819" />
    </filter>
    <filter
       inkscape:collect="always"
       id="filter3825">
      <feGaussianBlur
         inkscape:collect="always"
         stdDeviation="2.5006502"
         id="feGaussianBlur3827" />
    </filter>
    <filter
       inkscape:collect="always"
       id="filter3853">
      <feGaussianBlur
         inkscape:collect="always"
         stdDeviation="1.9249937"
         id="feGaussianBlur3855" />
    </filter>
  </defs>
  <sodipodi:namedview
     id="base"
     pagecolor="#ffffff"
     bordercolor="#666666"
     borderopacity="1.0"
     inkscape:pageopacity="0.0"
     inkscape:pageshadow="2"
     inkscape:zoom="0.54449224"
     inkscape:cx="289.15974"
     inkscape:cy="512.58828"
     inkscape:document-units="px"
     inkscape:current-layer="layer1"
     showgrid="false"
     inkscape:window-width="1366"
     inkscape:window-height="706"
     inkscape:window-x="-8"
     inkscape:window-y="-8"
     inkscape:window-maximized="1"
     showguides="true"
     inkscape:guide-bbox="true" />
  <metadata
     id="metadata7">
    <rdf:RDF>
      <cc:Work
         rdf:about="">
        <dc:format>image/svg+xml</dc:format>
        <dc:type
           rdf:resource="http://purl.org/dc/dcmitype/StillImage" />
        <dc:title />
      </cc:Work>
    </rdf:RDF>
  </metadata>
  <g
     inkscape:label="Capa 1"
     inkscape:groupmode="layer"
     id="layer1">
    <g
       id="g3013"
       transform="matrix(1.2124153,0,0,1.1992339,-66.499302,-180.34474)">
      <path
         transform="translate(-5.7787498,-2.8893749)"
         d="m 664.68741,572.91553 c 0,164.74217 -133.54992,298.29208 -298.29209,298.29208 -164.74216,0 -298.292079,-133.54991 -298.292079,-298.29208 0,-164.74217 133.549919,-298.29209 298.292079,-298.29209 164.74217,0 298.29209,133.54992 298.29209,298.29209 z"
         sodipodi:ry="298.29208"
         sodipodi:rx="298.29208"
         sodipodi:cy="572.91553"
         sodipodi:cx="366.39532"
         id="path2989"
         style="fill:#808080;fill-opacity:1;fill-rule:evenodd;stroke:none"
         sodipodi:type="arc" />
      <path
         sodipodi:nodetypes="csssccsscscsssscscsssscscsssssscssssscscsssscscsssscsscc"
         inkscape:connector-curvature="0"
         id="path3759"
         d="m 171.9506,403.12486 c 45.40455,58.69003 -22.07484,-3.89944 -5.45468,41.97961 2.38262,6.57709 -14.62079,4.23251 -9.0956,14.46822 7.96727,14.75978 31.51425,-0.29446 39.955,5.04045 3.71046,2.34516 5.30747,8.76526 6.50605,14.41214 9.02232,21.16848 -29.43781,-7.42714 -26.33344,17.93936 8.01383,47.93451 -12.46748,2.8886 -26.18297,26.7272 -5.34693,9.29337 -40.10766,18.27117 -26.77672,-11.15037 6.72551,-14.84328 -30.104466,-9.92573 -28.893241,3.63473 -0.328938,8.58784 16.417531,33.98555 11.854161,40.94318 -23.638721,36.04121 26.97482,116.7837 -4.70333,136.46571 -6.648004,11.93296 10.06694,40.67702 24.92887,39.33274 54.69548,-4.94726 25.91927,36.58799 40.37968,33.45111 7.65722,-1.66107 9.3847,3.83906 14.54385,23.12206 1.87259,6.99903 16.96127,6.23833 23.76316,9.75799 5.06364,2.62019 1.28427,9.73779 6.72662,12.8521 6.48386,5.88684 16.75499,-29.24351 20.43777,-25.69696 20.49275,19.73476 10.01654,31.37709 14.62043,34.87449 24.56883,22.23612 16.04259,-5.36149 41.99014,-22.15438 5.17021,-3.34608 14.39326,27.11633 25.78957,22.16147 9.44274,-4.10549 -0.83568,-23.25426 7.2797,-19.65735 9.92219,4.39772 7.22456,-5.72463 14.15576,-9.29369 9.03677,-4.65328 30.18646,7.79338 19.74998,-7.49127 -36.34266,-35.20139 9.90713,-58.28701 -57.47953,-45.32928 -17.65602,3.39506 18.59176,-48.33309 -6.5375,-76.23496 -21.88882,-26.7304 -7.67853,47.62304 -16.48274,55.34685 -10.22768,8.9726 -26.17341,-15.80387 -30.85512,3.89223 -3.62574,15.25362 -13.7188,-1.58208 -26.50709,8.76247 -9.62032,7.78196 -25.77807,-8.94439 -21.21313,-15.91943 2.29306,-3.50369 14.19796,-24.31951 25.52035,-17.69578 18.96965,11.09746 -1.81475,-42.99512 -13.33709,-39.3184 -46.73137,14.91177 -7.98761,-27.42761 -28.81446,-30.48162 -8.53202,-2.37302 0.99897,-8.02223 -2.62219,-13.68582 -3.64076,-5.69425 -20.40271,-11.41042 -17.47104,-16.5798 3.37357,-5.94859 -12.99594,-7.47563 -11.0353,-14.2847 3.74918,-13.02043 24.77058,-29.0721 29.91785,-18.03139 8.58546,18.41551 41.27208,39.7194 57.70703,24.74171 10.30765,-9.39369 24.38391,-10.57485 11.60687,-18.00464 -6.4975,-9.28215 -38.54368,9.45109 -28.13666,-7.89968 11.46813,-19.1199 -40.27609,-41.63983 -19.53559,-60.20354 7.82695,-7.48806 17.88838,14.36707 34.32826,23.27299 5.53423,2.99803 6.76978,-15.97357 13.8775,-17.27092 4.00522,-0.73106 14.05809,11.81896 17.52646,18.24824 11.15506,20.67798 48.90965,0.3047 32.1421,-7.24765 -72.82633,-32.80204 -34.27396,-53.54743 -28.40904,-56.50252 30.01694,-18.28528 -1.97993,-17.80392 15.89057,-38.49353 31.70348,-36.70477 25.42706,-33.30941 14.07485,-51.40272 -23.39559,-33.13073 -12.50871,17.47519 -20.7669,16.63995 -9.19446,-0.92994 -18.23858,-21.20573 -17.05373,14.24762 0.57854,17.31117 -34.37014,-7.47946 -26.88174,-15.89687 5.59612,-6.29038 25.88635,-32.47461 17.59957,-48.14185 -7.05804,-13.34414 -41.57838,-16.90855 -50.96584,-17.24523 -15.97503,-3.5025 5.54399,50.7269 -11.33344,37.93923 -6.0127,-4.55569 -14.21704,26.42858 -23.17841,20.41829 -10.68589,-7.16692 -21.81488,-0.79396 -19.97072,4.29744 -4.84262,38.29277 9.74327,0.21757 23.15509,16.34477 z"
         style="fill:#999999;stroke:none;filter:url(#filter3853)" />
      <path
         sodipodi:nodetypes="csssssscsscsccscsssssscssscssssssssssscssssc"
         inkscape:connector-curvature="0"
         id="path3761"
         d="m 413.16845,293.87346 c 5.83827,4.4684 -13.03832,37.65291 2.19807,32.91538 6.42031,-1.9963 20.43593,6.59423 22.28369,14.2871 5.05578,21.04903 25.29273,-0.96458 37.02607,1.92015 8.96894,2.20508 2.19768,14.31925 9.0448,18.59012 7.33435,4.57479 26.21722,4.93962 29.4295,6.87752 23.61128,14.24415 28.3522,29.63747 39.70646,32.11574 15.32017,3.34391 31.48565,10.52629 32.71078,25.24211 9.39573,31.05911 24.82284,17.99429 23.22775,33.43099 -2.18678,21.16269 14.51654,42.43775 8.42308,52.51315 -9.88156,16.33897 -29.28454,14.2323 -11.42521,38.29898 9.10379,12.27571 13.28908,25.46348 5.76455,28.41244 -9.29176,3.64158 -24.09948,6.46281 -37.1964,2.48566 -7.18,-2.31681 -14.36001,1.84465 -21.54002,5.70065 -16.63456,6.36797 -39.94241,-24.46041 -55.23533,-23.54945 -18.50106,1.10206 -29.21805,32.55586 -53.3157,23.95842 -20.24449,-6.52114 -25.69684,-19.84286 -18.9504,-18.24729 23.09875,5.46301 20.51179,-12.69818 27.38532,-17.27092 7.90243,-5.25723 -38.19852,-13.1528 -37.63042,-22.08847 0.50636,-7.96443 26.97928,-12.16345 28.34917,-24.51452 0.92078,-8.30191 -18.19426,-2.79581 -32.11291,-10.31366 -13.99368,-7.55838 -16.57958,-24.15169 -16.66942,-27.817 -0.18168,-7.4132 9.13666,-8.68843 17.56345,-8.25273 5.40227,10.62084 39.92143,-1.73296 34.73693,12.12903 -8.73566,23.35683 28.78008,13.94656 30.12966,24.96929 1.59208,13.0035 55.52425,21.5915 38.85901,7.51472 -33.80681,-28.55593 13.84833,-15.28397 5.10752,-26.31366 -1.51066,-2.06164 -26.48209,-7.74312 -30.97844,-18.70651 -6.32245,-15.41594 -65.06551,4.01749 -47.0735,-21.19517 6.18448,-8.66647 -3.67904,-22.06367 6.23318,-24.8769 15.46712,-4.38978 -18.54534,-10.05411 -12.77473,-20.79289 6.13356,-11.41423 -36.55289,-10.27367 -40.61276,-3.99915 -0.59527,0.91999 -14.94819,10.6608 -0.0823,14.59248 9.61009,2.54165 4.27178,17.69835 -0.71221,20.01982 -9.51244,4.43075 -26.38449,13.09851 -24.59362,0.9156 1.32788,-9.03334 1.57327,-18.37459 -13.98633,-20.54023 -16.96227,-2.36086 -9.16918,7.14004 -12.88332,22.46879 -3.56723,14.72239 -48.90381,-5.47947 -10.60998,-12.65642 11.50473,-2.15619 -31.92079,-11.78362 -20.92408,-20.94754 9.65609,-9.02545 37.01874,4.15767 51.67287,-5.11945 5.25836,-3.32892 3.09856,-13.0432 5.21208,-20.92139 2.75129,-10.2555 9.19631,-18.8187 12.37556,-20.65366 13.90947,-8.02809 -6.64785,-43.84335 3.17739,-51.69145 19.7493,-15.7751 19.49217,-6.81702 28.69019,1.11032 z"
         style="fill:#999999;stroke:none;filter:url(#filter3817)" />
      <path
         sodipodi:nodetypes="csscsssssssscssscscssc"
         inkscape:connector-curvature="0"
         id="path3763"
         d="m 326.49936,634.36595 c -6.0041,7.32033 32.59874,2.5892 30.52719,10.99866 -7.25805,29.46406 8.66841,22.25296 10.28262,29.05733 7.16587,30.2062 -8.47342,61.32972 20.83019,36.03088 6.47312,-6.47312 15.99935,17.52176 34.36986,30.75845 4.99774,3.60108 16.28098,-0.73298 21.53782,1.7672 21.69145,10.31654 28.41924,15.4063 23.06856,4.0731 -0.2477,-0.52465 -6.21217,-9.05309 -4.53549,-15.70158 1.04935,-4.16097 4.50589,-7.58563 16.04284,-7.85117 4.94288,-0.11376 6.15289,-14.77278 12.6164,-9.24288 7.50715,6.42278 23.82368,9.18421 25.05665,-0.24899 1.50834,-11.54001 -5.26414,-10.11563 -4.01458,-16.67197 1.4733,-7.73036 -6.65484,-13.63224 -15.30894,-9.99716 -23.40419,16.35816 -23.04218,-12.44589 -27.929,-12.66683 -9.88919,-0.44712 -12.98528,25.18412 -18.76325,4.44622 -3.78971,-13.60175 -25.03554,21.14844 -31.14437,15.57383 -13.14063,-11.99149 -29.11617,-18.52692 -18.47588,-20.83697 12.78315,-4.54356 17.16068,-18.3991 0.95886,-36.3591 -8.71482,-9.66053 13.93412,-27.57203 1.93052,-29.13339 -18.66019,-2.88001 -17.2103,17.01003 -29.91268,20.62945 -6.78386,1.933 -14.826,-9.91722 -23.93936,-10.72741 -9.64317,-0.8573 -20.25527,9.43636 -23.19796,16.10233 z"
         style="fill:#999999;stroke:none;filter:url(#filter3805)" />
      <path
         sodipodi:nodetypes="cssscsssssscscsssssc"
         inkscape:connector-curvature="0"
         id="path3765"
         d="m 258.11749,345.42846 c -12.63077,-0.0713 -16.77108,10.69412 -15.30107,29.2056 0.78426,9.87606 11.6603,-1.95145 23.8889,7.2381 11.33229,8.51598 28.20168,11.98819 30.08644,19.40242 7.63537,30.03575 -38.57459,25.33257 -17.31026,34.74605 6.30783,3.20204 17.78291,0.72729 22.88952,-5.06635 6.98626,-7.92619 7.09864,-17.51525 18.65271,-16.48466 7.80531,0.69621 16.34573,6.5659 18.04717,12.72797 1.92944,6.98782 -3.28043,14.35162 1.78619,14.97324 11.7807,1.44539 17.26558,-25.12457 32.96728,-31.16248 8.23554,-3.16688 33.76475,25.43408 37.50727,16.7229 18.01737,-41.93766 51.90411,-4.9528 47.11584,-24.51529 -3.20197,-9.98288 -8.96571,-16.98228 -9.14176,-28.47812 -0.28259,-18.45276 4.16863,-40.97501 -15.89949,-49.535 -3.51197,-0.87793 -7.90879,23.67402 -10.56145,24.39377 -19.39961,5.26377 -17.00053,22.64507 -32.72284,12.093 -11.11769,-7.46168 -16.2036,22.0866 -22.51964,24.1479 -26.93775,8.79138 -37.53476,-38.76112 -60.10047,-39.73569 -5.62445,-0.24291 -16.45123,17.38379 -32.87809,19.37982 -6.35619,0.77234 -7.75408,-21.53977 -16.50625,-20.05318 z"
         style="fill:#b3b3b3;stroke:none;filter:url(#filter3825)" />
      <path
         sodipodi:type="arc"
         style="fill:url(#radialGradient3789);fill-opacity:1;fill-rule:evenodd;stroke:none"
         id="path3769"
         sodipodi:cx="366.39532"
         sodipodi:cy="572.91553"
         sodipodi:rx="298.29208"
         sodipodi:ry="298.29208"
         d="m 664.68741,572.91553 c 0,164.74217 -133.54992,298.29208 -298.29209,298.29208 -164.74216,0 -298.292079,-133.54991 -298.292079,-298.29208 0,-164.74217 133.549919,-298.29209 298.292079,-298.29209 164.74217,0 298.29209,133.54992 298.29209,298.29209 z"
         transform="translate(-5.7787486,-5.4866821)" />
      <path
         sodipodi:nodetypes="cscscccscccccscsssssc"
         inkscape:connector-curvature="0"
         id="path3767"
         d="m 115.58016,571.86037 c -9.16558,39.81882 30.74358,92.89781 6.71184,124.21737 -14.85075,19.35437 4.53192,7.33477 6.2747,14.73856 -8.09087,25.38748 38.83369,4.9889 50.55228,40.50552 2.55823,7.75348 2.4648,12.4821 11.96483,17.40868 3.10376,2.06669 6.25438,4.22708 10.20749,7.99247 10.41528,8.17054 0.62356,17.07832 11.68788,27.27173 6.34474,7.21167 10.49112,-23.12068 15.92901,-21.68919 13.78963,3.63001 23.39708,-2.58881 15.23868,-22.14038 -5.89586,-19.3496 -17.91251,-7.79326 -21.22901,-19.58554 -4.15477,-7.09326 -6.39564,-3.66005 -8.8885,-1.6128 -2.68863,3.58611 -6.33952,0.43645 -9.85834,-1.78878 -1.73412,-1.12353 -5.58272,-4.78444 -11.64563,-11.10253 -10.42509,-10.35597 -14.35692,-16.33421 -7.57485,-19.69049 4.14826,-2.05288 16.41311,-3.64812 20.56138,-8.23056 3.50391,-10.3509 10.67272,-3.84151 10.45346,-11.21131 -0.34813,-11.70145 5.86452,-27.46205 -17.86596,-22.41961 -12.10931,2.57308 -28.25895,-14.8154 -20.19084,-20.2603 9.43109,-6.36472 -12.05004,-21.38237 -5.51606,-24.26459 4.48479,-1.97829 -15.99737,-8.50978 -22.78247,-19.09257 -8.29009,-12.93013 -19.05067,-29.47043 -34.02989,-29.04568 z"
         style="opacity:0.09691629;fill:#666666;fill-opacity:1;stroke:none" />
      <path
         sodipodi:nodetypes="cscscccscccccscsssssc"
         inkscape:connector-curvature="0"
         id="path3767-7"
         d="m 433.68815,519.31375 c -40.37604,-6.27076 -90.43941,37.36156 -123.41016,15.65053 -20.37474,-13.41664 -6.98892,5.04897 -14.24779,7.32103 -25.90476,-6.23936 -2.17598,39.09232 -36.75524,53.34119 -7.54885,3.1106 -12.2719,3.35835 -16.5007,13.18886 -1.83753,3.24469 -3.76514,6.54288 -7.2357,10.75719 -7.39833,10.97727 -16.98892,1.85329 -26.35805,13.62377 -6.73544,6.84819 23.81692,8.7968 22.78123,14.32375 -2.62632,14.01546 4.26902,23.14953 23.18148,13.60268 18.87414,-7.27564 6.48147,-18.42779 18.00394,-22.58589 6.77524,-4.65539 3.18939,-6.64289 0.96773,-8.98165 -3.77063,-2.42307 -0.89239,-6.29155 1.07334,-9.96165 0.99557,-1.81062 4.36946,-5.91316 10.23397,-12.41583 9.57736,-11.14463 15.25656,-15.49726 19.09309,-8.97483 2.34663,3.98945 4.82202,16.10736 9.69163,19.91444 10.5766,2.74848 4.60102,10.36797 11.93583,9.61791 11.6459,-1.19091 27.81342,3.86922 21.07311,-19.43593 -3.43947,-11.89228 12.73936,-29.2536 18.7518,-21.59907 7.02814,8.94764 20.4579,-13.56037 23.80373,-7.2512 2.2965,4.33048 7.33421,-16.5693 17.40024,-24.09976 12.29876,-9.20079 28.02018,-21.12593 26.51652,-36.03554 z"
         style="opacity:0.09691629;fill:#666666;fill-opacity:1;stroke:none" />
    </g>
  </g>
</svg>
