<?xml version="1.0" encoding="UTF-8" standalone="no"?>
<!-- Created with Inkscape (http://www.inkscape.org/) -->

<svg
   xmlns:dc="http://purl.org/dc/elements/1.1/"
   xmlns:cc="http://creativecommons.org/ns#"
   xmlns:rdf="http://www.w3.org/1999/02/22-rdf-syntax-ns#"
   xmlns:svg="http://www.w3.org/2000/svg"
   xmlns="http://www.w3.org/2000/svg"
   xmlns:xlink="http://www.w3.org/1999/xlink"
   xmlns:sodipodi="http://sodipodi.sourceforge.net/DTD/sodipodi-0.dtd"
   xmlns:inkscape="http://www.inkscape.org/namespaces/inkscape"
   width="210mm"
   height="297mm"
   id="svg3961"
   version="1.1"
   inkscape:version="0.48.1 "
   sodipodi:docname="venus.svg">
  <defs
     id="defs3963">
    <linearGradient
       id="linearGradient4587">
      <stop
         style="stop-color:#fe0000;stop-opacity:0.09803922;"
         offset="0"
         id="stop4589" />
      <stop
         id="stop4597"
         offset="0.25"
         style="stop-color:#ed0000;stop-opacity:0.19607843;" />
      <stop
         id="stop4595"
         offset="0.5"
         style="stop-color:#dd0000;stop-opacity:0.39215686;" />
      <stop
         style="stop-color:#bc0000;stop-opacity:0.78431374;"
         offset="1"
         id="stop4591" />
    </linearGradient>
    <linearGradient
       inkscape:collect="always"
       id="linearGradient4577">
      <stop
         style="stop-color:#000000;stop-opacity:1;"
         offset="0"
         id="stop4579" />
      <stop
         style="stop-color:#000000;stop-opacity:0;"
         offset="1"
         id="stop4581" />
    </linearGradient>
    <linearGradient
       inkscape:collect="always"
       id="linearGradient4545">
      <stop
         style="stop-color:#800000;stop-opacity:1;"
         offset="0"
         id="stop4547" />
      <stop
         style="stop-color:#800000;stop-opacity:0;"
         offset="1"
         id="stop4549" />
    </linearGradient>
    <linearGradient
       inkscape:collect="always"
       id="linearGradient4537">
      <stop
         style="stop-color:#800000;stop-opacity:1;"
         offset="0"
         id="stop4539" />
      <stop
         style="stop-color:#800000;stop-opacity:0;"
         offset="1"
         id="stop4541" />
    </linearGradient>
    <radialGradient
       inkscape:collect="always"
       xlink:href="#linearGradient4537"
       id="radialGradient4543"
       cx="433.35545"
       cy="606.88491"
       fx="433.35545"
       fy="606.88491"
       r="35.35534"
       gradientTransform="matrix(0.88957773,0,0,1.1236871,51.041791,-76.508173)"
       gradientUnits="userSpaceOnUse" />
    <radialGradient
       inkscape:collect="always"
       xlink:href="#linearGradient4545"
       id="radialGradient4551"
       cx="523.02266"
       cy="576.58034"
       fx="523.02266"
       fy="576.58034"
       r="42.190052"
       gradientTransform="matrix(0.88957773,0,0,1.1426784,51.041792,-80.18855)"
       gradientUnits="userSpaceOnUse" />
    <radialGradient
       inkscape:collect="always"
       xlink:href="#linearGradient4577"
       id="radialGradient4585"
       cx="385.55157"
       cy="559.84943"
       fx="385.55157"
       fy="559.84943"
       r="300.5"
       gradientUnits="userSpaceOnUse"
       gradientTransform="matrix(0.88957773,0,0,0.88379872,44.87673,56.284609)" />
    <radialGradient
       inkscape:collect="always"
       xlink:href="#linearGradient4587"
       id="radialGradient4593"
       cx="385.55157"
       cy="559.84943"
       fx="385.55157"
       fy="559.84943"
       r="300.5"
       gradientUnits="userSpaceOnUse"
       gradientTransform="matrix(0.88957773,0,0,0.88379872,44.87673,56.284609)" />
  </defs>
  <sodipodi:namedview
     id="base"
     pagecolor="#ffffff"
     bordercolor="#666666"
     borderopacity="1.0"
     inkscape:pageopacity="0.0"
     inkscape:pageshadow="2"
     inkscape:zoom="0.49497475"
     inkscape:cx="432.82011"
     inkscape:cy="488.58784"
     inkscape:document-units="px"
     inkscape:current-layer="layer1"
     showgrid="false"
     showguides="true"
     inkscape:guide-bbox="true"
     inkscape:window-width="1366"
     inkscape:window-height="706"
     inkscape:window-x="-8"
     inkscape:window-y="-8"
     inkscape:window-maximized="1" />
  <metadata
     id="metadata3966">
    <rdf:RDF>
      <cc:Work
         rdf:about="">
        <dc:format>image/svg+xml</dc:format>
        <dc:type
           rdf:resource="http://purl.org/dc/dcmitype/StillImage" />
        <dc:title />
      </cc:Work>
    </rdf:RDF>
  </metadata>
  <g
     inkscape:label="Capa 1"
     inkscape:groupmode="layer"
     id="layer1">
    <g
       id="g3016"
       transform="matrix(1.124129,0,0,1.1314794,-57.377554,-78.158482)">
      <path
         transform="matrix(1.0023786,0,0,0.99761905,54.865002,111.23609)"
         d="m 617.14285,415.21933 c 0,165.68542 -134.31457,300 -300,300 -165.68542,0 -299.999997,-134.31458 -299.999997,-300 0,-165.68543 134.314577,-300 299.999997,-300 165.68543,0 300,134.31457 300,300 z"
         sodipodi:ry="300"
         sodipodi:rx="300"
         sodipodi:cy="415.21933"
         sodipodi:cx="317.14285"
         id="path3969"
         style="fill:#803300;fill-opacity:1;fill-rule:evenodd;stroke:none"
         sodipodi:type="arc" />
      <path
         sodipodi:nodetypes="csssscccccccssssscccccssccccccccc"
         inkscape:connector-curvature="0"
         id="path4479"
         d="m 127.41199,698.69123 c 0.31042,-4.01641 22.13561,-17.36008 19.07483,-39.9318 -0.9979,-7.35902 -10.52438,-20.67112 13.9598,-25.33549 15.26334,-2.90775 33.31345,-2.35491 16.40551,-28.98682 -10.43388,-16.43455 0.589,-30.71201 13.97632,-24.29432 53.78432,25.78343 32.83419,-22.27116 19.61308,-33.62143 -44.93923,-36.51978 13.25997,-25.15857 22.631,-27.08527 98.44857,6.77669 54.89851,-5.11209 13.92234,-16.66256 -49.57201,-19.80495 12.16773,-19.73084 21.8031,-13.26789 64.63397,34.74935 20.87443,-33.48249 18.77149,-33.01959 -12.22029,-13.80823 6.33207,-58.50352 22.10249,13.44651 5.13199,17.6615 11.7686,28.58437 22.27621,22.17044 0,0 9.99699,-22.55762 19.96058,-13.52902 71.83933,65.09796 23.56905,-6.83201 24.57467,-16.26298 3.06615,-28.75485 44.11939,-23.76102 21.28085,-12.53338 -11.5924,5.69893 -0.0408,32.2758 23.75363,16.52032 19.81051,-13.11753 50.86964,13.73624 21.06773,16.09977 -54.1196,4.29214 31.66746,27.69035 38.20818,29.86024 37.77684,11.20291 21.68484,-5.39356 9.56283,-19.94127 -15.47024,-18.11135 -10.61754,-26.10949 12.09444,-25.2204 23.35075,3.56375 20.11912,-6.10058 9.35709,-19.51223 -40.72275,-49.08326 6.14776,-40.71499 11.51297,-41.82249 42.90963,-4.0173 39.25415,10.40979 28.56854,20.8905 -60.14451,58.99121 30.68766,-4.04352 30.15966,-5.09138 -12.31974,-24.44953 73.08894,-19.72421 63.79098,-19.56462 -13.12391,-26.75372 -37.41422,-74.43716 -96.19275,-118.49677 -18.87897,3.22641 -0.5102,23.31939 -60.10714,4.09306 -13.0706,-2.54802 -64.28775,-42.01218 -50.22671,3.42025 3.1009,22.99824 -6.7967,31.44261 -49.31903,3.35844 -17.79585,-12.63303 -35.02438,-27.20195 -65.80746,4.48123 -16.95654,11.19924 -3.0013,81.64961 -66.05127,4.49785 -28.61617,-26.15672 -60.91096,-10.21021 -93.25942,6.3506 -133.609147,135.72445 -97.286761,301.65762 -37.46454,388.9905 z"
         style="fill:#550000;stroke:none" />
      <path
         style="fill:#aa4400;stroke:none"
         d="m 118.34951,685.15212 c 0.31241,-3.81648 28.00568,-17.20844 24.92524,-38.6565 -1.0043,-6.99267 -10.59196,-19.64207 14.04947,-24.07422 15.36137,-2.76299 33.52743,-2.23767 16.51088,-27.54379 -10.5009,-15.61639 0.5928,-29.18312 14.06612,-23.0849 54.12978,24.49986 33.04507,-21.16246 19.73903,-31.94768 -45.22788,-34.70175 13.34516,-23.90613 22.77638,-25.7369 99.08093,6.43933 55.25115,-4.85759 14.01176,-15.83307 -49.89043,-18.81901 12.2459,-18.74859 21.94316,-12.60739 65.04913,33.01944 21.00852,-31.81565 18.89207,-31.37579 -12.2988,-13.12084 6.37273,-55.59109 22.24443,12.77712 5.16499,16.78225 11.84421,27.16137 22.4193,21.06673 0,0 10.06124,-21.43466 20.08881,-12.8555 72.30078,61.85721 23.72043,-6.49191 24.73254,-15.45337 3.08583,-27.32339 44.40277,-22.57814 21.41753,-11.90946 -11.66685,5.41522 -0.0411,30.66904 23.90622,15.6979 19.93775,-12.46451 51.19124,12.98508 21.20304,15.29831 -54.60123,4.21182 31.46737,28.85117 41.31755,27.66113 38.01949,10.64522 18.96017,-4.41247 6.76032,-18.23595 -15.56962,-17.20975 -10.68574,-24.80972 12.17213,-23.96487 23.50074,3.38632 20.24834,-5.79688 9.41718,-18.54088 -40.98431,-46.6398 6.18726,-38.6881 11.58692,-39.74047 43.18526,-3.8173 39.50629,9.89156 28.75205,19.85051 -60.53084,56.0545 30.88479,-3.84222 30.35338,-4.83791 -12.39886,-23.23238 73.55841,-18.74228 64.20074,-18.59064 -9.62828,-21.14638 -38.37054,-78.56996 -97.52663,-120.43619 -19.00023,3.0658 0.20251,29.99695 -59.77723,11.72775 -13.15455,-2.42119 -64.70068,-39.92073 -50.54934,3.24998 3.12081,21.85333 -6.84034,29.87732 -49.63581,3.19124 -17.91017,-12.00413 -35.24936,-25.84777 -66.23017,4.25814 -17.06547,10.64173 -3.02058,77.58493 -66.47553,4.27394 -28.79999,-24.85456 -61.30223,-9.70191 -93.85846,6.03447 C 27.315207,443.78162 69.875172,598.27473 118.34951,685.15212 z"
         id="path4481"
         inkscape:connector-curvature="0"
         sodipodi:nodetypes="csssscccccccssssscccccssccccccccc" />
      <path
         sodipodi:nodetypes="ccscccscscsc"
         inkscape:connector-curvature="0"
         id="path4483"
         d="M 167.37045,324.27094 C 50.999998,468.62085 79.389802,559.16042 118.68348,645.64679 c 9.31658,14.06635 16.27541,10.98839 18.74435,-31.00044 2.09155,-35.57059 32.12888,-35.32777 27.79466,-60.92303 2.55645,-68.11532 6.86481,-97.63759 28.63939,-58.43198 15.27751,34.12271 34.36727,-44.23465 51.5509,-30.64116 8.72232,0.59424 15.61262,-6.8816 16.33267,-20.07105 1.14778,-21.02451 42.32607,-45.93676 18.75058,-35.51058 -23.59393,14.11371 -41.77572,23.85178 -43.45842,10.20581 -1.73481,-14.06846 -26.78965,3.6526 -36.01588,-5.9303 -6.7322,-6.40558 -23.82583,-13.57891 -16.90071,-51.13291 5.6955,-30.88605 -1.0219,-52.10237 -16.75057,-37.94021 z"
         style="fill:#550000;stroke:none" />
      <path
         sodipodi:nodetypes="cccccccccsc"
         inkscape:connector-curvature="0"
         id="path4485"
         d="m 327.03504,344.22332 c 39.24171,67.35544 -27.66339,40.51451 -24.34348,61.28231 -2.22554,10.82218 2.2643,10.50521 5.47777,12.3054 37.5848,14.66199 -1.55859,17.45918 19.5817,43.98881 13.64857,14.98976 32.35066,-45.66644 78.75832,-51.30612 26.46462,1.64783 28.26555,20.82893 42.2431,31.35374 12.62254,17.94653 34.01613,6.76819 30.07135,-12.11395 -25.14568,-48.84529 9.17163,-113.90683 -20.04757,-94.7738 -18.01963,8.43157 -30.33629,22.53905 -55.13082,24.22789 -6.93536,-1.44576 -16.78613,10.50198 -27.18443,-9.32072 -14.07036,-26.82287 -60.47812,-25.57404 -49.42594,-5.64356 z"
         style="fill:#550000;stroke:none" />
      <path
         sodipodi:nodetypes="cscscsscc"
         inkscape:connector-curvature="0"
         id="path4487"
         d="m 493.1435,317.85767 c -19.26142,11.86713 6.13197,99.67775 22.91151,79.09694 16.07163,-19.71252 1.2801,-30.22386 44.39106,-6.41327 22.83848,16.35752 4.56452,-52.9609 55.13082,-12.82653 20.66116,16.39873 -12.53264,-49.34506 -21.47954,-44.89285 0.29,3.4635 -36.29426,9.77902 -37.2312,-11.40136 -1.24185,-28.07297 -14.15263,-26.04743 -15.03568,-18.52721 -0.78724,6.70429 -5.63609,57.86405 -22.91152,30.64115 -7.83048,-7.30934 -11.11268,-27.06709 -25.77545,-15.67687 z"
         style="fill:#550000;stroke:none" />
      <path
         sodipodi:nodetypes="ccscccscscsc"
         inkscape:connector-curvature="0"
         id="path4483-5"
         d="m 170.56193,321.43142 c -132.824163,127.44742 -91.40431,258.69227 -48.25622,332.2975 7.68731,13.21449 11.77483,-24.89089 15.85618,-63.16031 3.45749,-32.41971 30.25891,-31.03071 27.53452,-54.5856 5.3277,-62.13789 10.49354,-88.94511 28.17718,-52.27671 12.11142,31.77168 32.65523,-39.08198 47.38609,-25.99386 7.75923,0.88187 14.24401,-5.6811 15.47651,-17.70438 1.96463,-19.16558 39.83562,-40.32796 18.3252,-31.71758 -21.6918,11.97898 -38.35686,20.17022 -39.24874,7.63646 -0.91948,-12.92181 -24.07661,2.29645 -31.88374,-6.81798 -5.72297,-6.1144 -20.66053,-13.33289 -12.79975,-47.37704 6.46503,-27.9994 -5.89407,-52.62936 -20.56723,-40.3005 z"
         style="fill:#d45500;stroke:none" />
      <path
         sodipodi:nodetypes="cccccccccsc"
         inkscape:connector-curvature="0"
         id="path4485-1"
         d="m 332.53034,342.30442 c 37.6562,64.50489 -26.54568,38.79989 -23.3599,58.68878 -2.13562,10.36417 2.1728,10.06062 5.25644,11.78462 36.06623,14.04147 -1.49561,16.72028 18.79052,42.12715 13.09712,14.35538 31.04357,-43.73377 75.57618,-49.13478 25.39535,1.57809 27.12351,19.94742 40.53631,30.0268 12.11254,17.18701 32.64174,6.48175 28.85635,-11.60127 -24.12969,-46.7781 8.80106,-109.08616 -19.23757,-90.76287 -17.29156,8.07475 -29.11058,21.58518 -52.90332,23.20255 -6.65514,-1.38457 -16.1079,10.05752 -26.08607,-8.92626 -13.50186,-25.6877 -58.03457,-24.49172 -47.42894,-5.40472 z"
         style="fill:#d45500;stroke:none" />
      <path
         style="fill:#d45500;stroke:none"
         d="m 496.43251,315.34633 c -18.45019,10.78954 5.87371,90.62661 21.94656,71.91462 15.39474,-17.92254 1.22618,-27.47942 42.52145,-5.83091 21.8766,14.87218 4.37229,-48.15185 52.8089,-11.66184 19.79097,14.90966 -12.00481,-44.86433 -20.5749,-40.81641 0.27778,3.14901 -34.76567,8.89105 -35.66315,-10.36607 -1.18954,-25.52382 -13.55656,-23.68221 -14.40242,-16.84486 -0.75408,6.09552 -5.39871,52.60977 -21.94656,27.85881 -7.50069,-6.64561 -10.64466,-24.60929 -24.68988,-14.25334 z"
         id="path4525"
         inkscape:connector-curvature="0"
         sodipodi:nodetypes="cscscsscc" />
      <path
         sodipodi:nodetypes="ccccscccccccccccccc"
         inkscape:connector-curvature="0"
         id="path4527"
         d="m 349.16161,541.48264 c 28.50298,-16.38371 46.93277,44.09382 67.8412,85.65852 9.13111,20.76015 -18.8889,25.08709 -31.38921,36.27892 44.34802,-20.57249 56.01244,-0.48445 68.85376,18.13945 -3.8217,-1.06858 -18.80023,-30.83028 16.20088,-64.49583 13.47757,-12.96331 9.97453,-17.84651 51.64032,21.16269 5.23654,1.37746 34.99471,31.22765 54.67799,49.37963 -110.41019,-152.10128 -54.3423,-124.5132 24.30133,-72.55782 -15.85572,-21.72764 -44.10189,-35.23417 -45.56499,-66.51133 -3.72285,-14.74521 20.41967,5.6732 39.48966,-4.031 -59.70721,-21.22253 -2.32478,-31.52006 17.21344,-45.34862 -25.01502,6.44012 -45.04219,5.43398 -48.60265,-20.15495 3.18594,52.02262 -38.37352,69.26103 -44.55244,70.54232 -30.46251,36.44981 -72.66642,86.19342 -35.43943,-12.09297 -41.68552,75.50718 -56.50403,14.6432 -71.89143,-43.33314 -0.88851,28.83679 49.72515,175.56611 -23.28877,39.30215 -16.16342,-7.78201 -49.72802,10.41383 -46.57755,-26.20144 -14.36599,31.04881 -29.66821,61.89055 -67.84121,87.67403 z"
         style="fill:#feb100;fill-opacity:1;stroke:none" />
      <path
         sodipodi:nodetypes="ccccscccccccccccccc"
         inkscape:connector-curvature="0"
         id="path4531"
         d="m 353.10875,541.18567 c 27.30826,-15.51308 44.96554,41.75068 64.99757,81.10663 8.74836,19.65694 -18.09715,23.75395 -30.0735,34.35104 42.48912,-19.47927 53.66461,-0.4587 65.96767,17.17552 -3.66151,-1.01179 -18.01218,-29.19196 15.52181,-61.06852 12.91264,-12.27443 9.55643,-16.89814 49.47576,20.03811 5.01703,1.30426 33.52785,29.56821 52.38609,46.75559 -105.78222,-144.0186 -52.06448,-117.89656 23.28271,-68.7021 -15.1911,-20.57301 -42.25331,-33.36181 -43.65507,-62.97689 -3.56681,-13.96166 19.56375,5.37172 37.8344,-3.8168 -57.20452,-20.09477 -2.22734,-29.84508 16.49191,-42.93879 -23.96648,6.09788 -43.15419,5.14521 -46.56541,-19.08392 3.0524,49.25813 -36.76505,65.5805 -42.68497,66.7937 -29.18565,34.51286 -69.62053,81.61309 -33.95395,-11.45035 -39.93822,71.49473 -54.13559,13.86506 -68.87801,-41.03042 -0.85127,27.30441 47.64085,166.23652 -22.3126,37.21364 -15.4859,-7.36848 -47.6436,9.86043 -44.6252,-24.80909 -13.76382,29.39886 -28.42463,58.60168 -64.99756,83.01501 z"
         style="fill:#ad3200;fill-opacity:1;stroke:none" />
      <path
         sodipodi:nodetypes="ccccccccc"
         inkscape:connector-curvature="0"
         id="path4533"
         d="m 391.68893,560.88178 c 12.36288,23.84951 28.1651,38.56397 36.9932,71.802 -2.29714,12.13128 -11.32185,9.37198 -17.07378,13.85653 16.28919,-8.46534 24.36888,-0.94047 31.30191,8.81779 7.58123,-18.12368 -6.30876,-39.28954 24.18786,-54.16642 -8.87379,-15.6987 4.19166,-28.62255 7.11407,-42.82928 -12.71647,16.63762 -24.51674,44.63143 -42.68444,-6.29841 l 1.4228,40.30989 c -3.93486,9.06237 -22.49337,-11.00594 -41.26162,-31.4921 z"
         style="fill:url(#radialGradient4543);fill-opacity:1;stroke:none" />
      <path
         sodipodi:nodetypes="cccccccccc"
         inkscape:connector-curvature="0"
         id="path4535"
         d="m 481.80635,591.36614 c 11.61142,-11.22427 22.10863,-15.79502 34.93316,-34.26342 14.12111,-11.13014 29.10191,-16.27105 42.02105,-35.77503 -1.4296,4.53943 -11.38843,14.48076 0.50627,10.58135 -6.52359,6.09895 -5.51148,-2.80191 -18.73227,16.62782 5.08928,15.70504 13.98304,29.13822 25.82016,40.81378 1.25824,2.3175 -34.41406,-32.03666 -49.61521,-23.68206 -5.65415,3.21895 -7.97266,7.5445 -9.61927,12.09297 0.20563,21.22373 7.75982,37.87644 18.73227,52.40286 -14.49963,-13.59844 -25.95226,-38.3162 -44.04616,-38.79827 z"
         style="fill:url(#radialGradient4551);fill-opacity:1;stroke:none" />
      <path
         style="fill:#550000;stroke:none"
         d="m 166.42773,715.12829 c 123.87777,136.07956 256.96903,98.94343 332.22706,58.30186 13.50939,-7.23763 -24.63273,-12.48467 -62.93978,-17.73064 -32.45159,-4.4441 -30.22607,-31.06241 -53.96639,-29.08222 -62.23927,-7.22549 -89.00136,-13.19509 -51.6277,-29.64996 32.28327,-11.06352 -38.23759,-33.69571 -24.63684,-47.94397 1.12611,-7.69135 -5.26404,-14.34562 -17.30069,-15.94429 -19.18687,-2.54831 -39.26639,-40.87718 -31.2857,-19.21233 11.35813,21.94964 19.06805,38.78145 6.45289,39.28026 -13.00571,0.51422 1.56017,24.02194 -7.83528,31.50582 -6.31798,5.50356 -14.03034,20.13936 -47.97687,11.26465 -27.91912,-7.29895 -53.03771,4.23228 -41.1107,19.21082 z"
         id="path4553"
         inkscape:connector-curvature="0"
         sodipodi:nodetypes="ccscccscscsc" />
      <path
         sodipodi:nodetypes="ccscccscscsc"
         inkscape:connector-curvature="0"
         id="path4555"
         d="m 170.59479,718.97648 c 118.6303,126.55106 246.08379,92.01526 318.1539,54.21947 12.93713,-6.73084 -23.58929,-11.61046 -60.27365,-16.48911 -31.07694,-4.13292 -28.94569,-28.88738 -51.68038,-27.04583 -59.6028,-6.71957 -85.23125,-12.27116 -49.44073,-27.57383 30.91574,-10.28884 -36.61786,-31.33629 -23.59323,-44.58686 1.07841,-7.15279 -5.04105,-13.34112 -16.56783,-14.82784 -18.37412,-2.36988 -37.60307,-38.0149 -29.96044,-17.86706 10.877,20.41269 18.26033,36.06591 6.17954,36.5298 -12.45478,0.47821 1.49409,22.33988 -7.50337,29.29973 -6.05035,5.11819 -13.436,18.72917 -45.94457,10.47589 -26.73645,-6.78787 -50.79102,3.93592 -39.36924,17.86564 z"
         style="fill:#d45500;stroke:none" />
      <path
         sodipodi:type="arc"
         style="opacity:0.59911894;fill:url(#radialGradient4593);fill-opacity:1;fill-rule:evenodd;stroke:url(#radialGradient4585);stroke-opacity:1"
         id="path4575"
         sodipodi:cx="317.14285"
         sodipodi:cy="415.21933"
         sodipodi:rx="300"
         sodipodi:ry="300"
         d="m 617.14285,415.21933 c 0,165.68542 -134.31457,300 -300,300 -165.68542,0 -299.999997,-134.31458 -299.999997,-300 0,-165.68543 134.314577,-300 299.999997,-300 165.68543,0 300,134.31457 300,300 z"
         transform="matrix(1.0023786,0,0,0.99761905,54.865002,111.23609)" />
    </g>
  </g>
</svg>
